<svg width="14" height="19" viewBox="0 0 14 19" fill="none" xmlns="http://www.w3.org/2000/svg">
<path d="M1 4.56885V14.054C1 15.4151 1 16.0955 1.20412 16.5119C1.58245 17.2838 2.41157 17.7274 3.26367 17.614C3.7234 17.5529 4.28964 17.1754 5.4221 16.4204L5.42481 16.4186C5.87368 16.1194 6.09815 15.9697 6.33295 15.8867C6.76421 15.7343 7.23476 15.7343 7.66602 15.8867C7.90129 15.9699 8.12664 16.1201 8.57732 16.4206C9.70978 17.1755 10.2767 17.5527 10.7364 17.6139C11.5885 17.7273 12.4176 17.2838 12.7959 16.5119C13 16.0955 13 15.4148 13 14.054V4.56556C13 3.44765 13 2.88785 12.7822 2.46045C12.5905 2.08413 12.2837 1.77839 11.9074 1.58664C11.4796 1.36865 10.9203 1.36865 9.8002 1.36865H4.2002C3.08009 1.36865 2.51962 1.36865 2.0918 1.58664C1.71547 1.77839 1.40973 2.08413 1.21799 2.46045C1 2.88827 1 3.44874 1 4.56885Z" stroke="white" stroke-width="2" stroke-linecap="round" stroke-linejoin="round"/>
</svg>
