<svg width="14" height="14" viewBox="0 0 14 14" fill="none" xmlns="http://www.w3.org/2000/svg">
<path d="M4.375 10.5058C4.375 10.9317 4.50334 11.3166 4.7425 11.6491C3.17917 11.55 1.75 10.9783 1.75 9.92251V9.40917C2.3625 9.8875 3.26667 10.2083 4.375 10.3133V10.5058ZM4.39832 8.13167C4.39249 8.1375 4.39252 8.14332 4.39252 8.14915C4.38085 8.20748 4.375 8.26584 4.375 8.32418V9.43833C2.96333 9.275 1.75 8.71501 1.75 7.74084V7.22751C2.3625 7.71168 3.27252 8.0325 4.39252 8.13167H4.39832ZM6.67333 5.99668C5.78667 6.27085 5.0925 6.71999 4.7075 7.27999C3.15584 7.18082 1.75 6.60918 1.75 5.55918V5.16249C2.51417 5.76332 3.73917 6.11332 5.25 6.11332C5.7575 6.11332 6.23583 6.07252 6.67333 5.99668ZM8.75 5.16249V5.55918C8.75 5.61168 8.74415 5.65835 8.73832 5.70502C8.27749 5.70502 7.83999 5.74582 7.43166 5.81582C7.95666 5.65832 8.4 5.43665 8.75 5.16249ZM5.25 1.75C3.5 1.75 1.75 2.33333 1.75 3.49416C1.75 4.66666 3.5 5.23832 5.25 5.23832C7 5.23832 8.75 4.66666 8.75 3.49416C8.75 2.33333 7 1.75 5.25 1.75ZM8.75 10.9433C7.28583 10.9433 6.0375 10.5584 5.25 9.93418V10.5058C5.25 11.6667 7 12.25 8.75 12.25C10.5 12.25 12.25 11.6667 12.25 10.5058V9.93418C11.4625 10.5584 10.2142 10.9433 8.75 10.9433ZM8.75 6.58002C6.81917 6.58002 5.25 7.36168 5.25 8.32418C5.25 9.28668 6.81917 10.0683 8.75 10.0683C10.6808 10.0683 12.25 9.28668 12.25 8.32418C12.25 7.36168 10.6808 6.58002 8.75 6.58002Z" fill="url(#paint0_linear_684_8169)"/>
<defs>
<linearGradient id="paint0_linear_684_8169" x1="7" y1="1.75" x2="7" y2="12.25" gradientUnits="userSpaceOnUse">
<stop offset="0.322115" stop-color="#FFA808"/>
<stop offset="1" stop-color="#6E4700"/>
</linearGradient>
</defs>
</svg>
