<svg width="17" height="18" viewBox="0 0 17 18" fill="none" xmlns="http://www.w3.org/2000/svg">
<path d="M5.3125 13.2571C5.3125 13.7742 5.46834 14.2416 5.75875 14.6454C3.86042 14.525 2.125 13.8308 2.125 12.5488V11.9254C2.86875 12.5063 3.96667 12.8958 5.3125 13.0233V13.2571ZM5.34082 10.3742C5.33373 10.3813 5.33377 10.3883 5.33377 10.3954C5.3196 10.4662 5.3125 10.5371 5.3125 10.6079V11.9608C3.59833 11.7625 2.125 11.0825 2.125 9.8996V9.27626C2.86875 9.86418 3.97377 10.2538 5.33377 10.3742H5.34082ZM8.10333 7.78169C7.02667 8.1146 6.18375 8.65999 5.71626 9.33999C3.83209 9.21957 2.125 8.52544 2.125 7.25044V6.76873C3.05292 7.49832 4.54042 7.92332 6.375 7.92332C6.99125 7.92332 7.57208 7.87377 8.10333 7.78169ZM10.625 6.76873V7.25044C10.625 7.31419 10.6179 7.37085 10.6108 7.42752C10.0512 7.42752 9.51999 7.47706 9.02416 7.56206C9.66166 7.37081 10.2 7.10165 10.625 6.76873ZM6.375 2.625C4.25 2.625 2.125 3.33333 2.125 4.74291C2.125 6.16666 4.25 6.86082 6.375 6.86082C8.5 6.86082 10.625 6.16666 10.625 4.74291C10.625 3.33333 8.5 2.625 6.375 2.625ZM10.625 13.7883C8.84708 13.7883 7.33125 13.3209 6.375 12.5629V13.2571C6.375 14.6667 8.5 15.375 10.625 15.375C12.75 15.375 14.875 14.6667 14.875 13.2571V12.5629C13.9187 13.3209 12.4029 13.7883 10.625 13.7883ZM10.625 8.49002C8.28042 8.49002 6.375 9.43918 6.375 10.6079C6.375 11.7767 8.28042 12.7258 10.625 12.7258C12.9696 12.7258 14.875 11.7767 14.875 10.6079C14.875 9.43918 12.9696 8.49002 10.625 8.49002Z" fill="#FFCF1B"/>
</svg>
