<svg width="22" height="22" viewBox="0 0 22 22" fill="none" xmlns="http://www.w3.org/2000/svg">
<path d="M20.1665 5.23404V14.0157C20.1665 16.5457 18.1132 18.599 15.5832 18.599H6.41651C5.99484 18.599 5.59151 18.544 5.19734 18.434C4.62901 18.2782 4.44567 17.554 4.86734 17.1324L14.6115 7.38821C14.8132 7.18654 15.1157 7.14071 15.3998 7.19571C15.6932 7.25071 16.014 7.16821 16.2432 6.94821L18.599 4.58321C19.4607 3.72154 20.1665 4.00571 20.1665 5.23404Z" fill="url(#paint0_linear_138_5873)"/>
<path d="M20.1665 5.23404V14.0157C20.1665 16.5457 18.1132 18.599 15.5832 18.599H6.41651C5.99484 18.599 5.59151 18.544 5.19734 18.434C4.62901 18.2782 4.44567 17.554 4.86734 17.1324L14.6115 7.38821C14.8132 7.18654 15.1157 7.14071 15.3998 7.19571C15.6932 7.25071 16.014 7.16821 16.2432 6.94821L18.599 4.58321C19.4607 3.72154 20.1665 4.00571 20.1665 5.23404Z" fill="url(#paint1_linear_138_5873)"/>
<g opacity="0.4">
<path d="M13.42 6.74656L3.82254 16.3441C3.38254 16.7841 2.64921 16.6741 2.35587 16.1241C2.01671 15.5007 1.83337 14.7766 1.83337 14.0157V5.23406C1.83337 4.00573 2.53921 3.72156 3.40087 4.58323L5.76587 6.9574C6.12337 7.30573 6.71004 7.30573 7.06754 6.9574L10.3492 3.66656C10.7067 3.30906 11.2934 3.30906 11.6509 3.66656L13.4292 5.4449C13.7775 5.8024 13.7775 6.38906 13.42 6.74656Z" fill="url(#paint2_linear_138_5873)"/>
<path d="M13.42 6.74656L3.82254 16.3441C3.38254 16.7841 2.64921 16.6741 2.35587 16.1241C2.01671 15.5007 1.83337 14.7766 1.83337 14.0157V5.23406C1.83337 4.00573 2.53921 3.72156 3.40087 4.58323L5.76587 6.9574C6.12337 7.30573 6.71004 7.30573 7.06754 6.9574L10.3492 3.66656C10.7067 3.30906 11.2934 3.30906 11.6509 3.66656L13.4292 5.4449C13.7775 5.8024 13.7775 6.38906 13.42 6.74656Z" fill="url(#paint3_linear_138_5873)"/>
</g>
<defs>
<linearGradient id="paint0_linear_138_5873" x1="12.4223" y1="18.599" x2="12.4223" y2="4.08594" gradientUnits="userSpaceOnUse">
<stop/>
<stop offset="1" stop-opacity="0"/>
</linearGradient>
<linearGradient id="paint1_linear_138_5873" x1="12.4016" y1="4.08594" x2="12.4016" y2="18.599" gradientUnits="userSpaceOnUse">
<stop stop-color="#00B2FF"/>
<stop offset="0.146667" stop-color="#0AA9FA"/>
<stop offset="1" stop-color="#4670DA"/>
</linearGradient>
<linearGradient id="paint2_linear_138_5873" x1="7.77716" y1="16.6156" x2="7.77716" y2="3.39844" gradientUnits="userSpaceOnUse">
<stop/>
<stop offset="1" stop-opacity="0"/>
</linearGradient>
<linearGradient id="paint3_linear_138_5873" x1="7.76135" y1="3.39844" x2="7.76135" y2="16.6156" gradientUnits="userSpaceOnUse">
<stop stop-color="#00B2FF"/>
<stop offset="0.146667" stop-color="#0AA9FA"/>
<stop offset="1" stop-color="#4670DA"/>
</linearGradient>
</defs>
</svg>
