<svg width="42" height="41" viewBox="0 0 42 41" fill="none" xmlns="http://www.w3.org/2000/svg">
<path d="M6.125 12H9.21719C10.0467 12 10.8484 11.7142 11.4801 11.194L17.9392 5.87819C19.838 4.31589 22.7517 5.62687 22.7517 8.04427V32.9558C22.7517 35.3732 19.838 36.6858 17.9392 35.1218L11.4801 29.806C10.8484 29.2858 10.0467 29 9.21719 29H6.125C4.676 29 3.5 27.8576 3.5 26.45V14.5517C3.5 13.1424 4.676 12 6.125 12ZM29.3422 28.6107C31.5804 26.4466 32.8125 23.5651 32.8125 20.5C32.8125 17.4349 31.5804 14.5534 29.3422 12.3893C28.8277 11.8929 27.9966 11.8928 27.4856 12.3926C26.9728 12.8907 26.9763 13.7 27.489 14.1964C29.2285 15.8794 30.1875 18.12 30.1875 20.5017C30.1875 22.8834 29.2285 25.1239 27.489 26.8069C26.9763 27.3033 26.9728 28.1109 27.4856 28.6107C27.7411 28.8606 28.0789 28.9863 28.4149 28.9863C28.7509 28.9829 29.0849 28.8589 29.3422 28.6107ZM33.3673 33.7941C33.0313 33.7941 32.6935 33.6701 32.438 33.4202C31.927 32.9221 31.9269 32.1145 32.4414 31.6164C35.5022 28.6516 37.1875 24.7041 37.1875 20.5C37.1875 16.2959 35.5022 12.3501 32.4414 9.38361C31.9269 8.88551 31.927 8.07795 32.438 7.57985C32.949 7.08175 33.7803 7.08009 34.2948 7.57819C37.8526 11.0258 39.8125 15.6159 39.8125 20.5C39.8125 25.3841 37.8526 29.9742 34.2948 33.4218C34.0376 33.67 33.7033 33.7941 33.3673 33.7941Z" fill="white"/>
</svg>
