<svg width="20" height="20" viewBox="0 0 20 20" fill="none" xmlns="http://www.w3.org/2000/svg">
<path d="M14.5333 12.8085C14.375 12.8085 14.2167 12.7502 14.0917 12.6252C13.85 12.3835 13.85 11.9835 14.0917 11.7419L15.7833 10.0502L14.0917 8.35853C13.85 8.11686 13.85 7.71686 14.0917 7.4752C14.3333 7.23353 14.7333 7.23353 14.975 7.4752L17.1083 9.60853C17.35 9.85019 17.35 10.2502 17.1083 10.4919L14.975 12.6252C14.85 12.7502 14.6917 12.8085 14.5333 12.8085Z" fill="#A11313"/>
<path d="M16.6083 10.6748H8.1333C7.79163 10.6748 7.5083 10.3915 7.5083 10.0498C7.5083 9.70814 7.79163 9.4248 8.1333 9.4248H16.6083C16.95 9.4248 17.2333 9.70814 17.2333 10.0498C17.2333 10.3915 16.95 10.6748 16.6083 10.6748Z" fill="#A11313"/>
<path d="M9.79997 17.2918C5.5083 17.2918 2.5083 14.2918 2.5083 10.0002C2.5083 5.7085 5.5083 2.7085 9.79997 2.7085C10.1416 2.7085 10.425 2.99183 10.425 3.3335C10.425 3.67516 10.1416 3.9585 9.79997 3.9585C6.24163 3.9585 3.7583 6.44183 3.7583 10.0002C3.7583 13.5585 6.24163 16.0418 9.79997 16.0418C10.1416 16.0418 10.425 16.3252 10.425 16.6668C10.425 17.0085 10.1416 17.2918 9.79997 17.2918Z" fill="#A11313"/>
</svg>
