<svg width="20" height="21" viewBox="0 0 20 21" fill="none" xmlns="http://www.w3.org/2000/svg">
<path d="M6.66663 19.0998C6.43329 19.0998 6.19161 19.0415 5.97495 18.9249C5.49995 18.6749 5.20829 18.1748 5.20829 17.6415V16.4582C2.69163 16.1999 1.04163 14.3498 1.04163 11.6998V6.69987C1.04163 3.8332 2.96663 1.9082 5.83329 1.9082H14.1666C17.0333 1.9082 18.9583 3.8332 18.9583 6.69987V11.6998C18.9583 14.5665 17.0333 16.4915 14.1666 16.4915H11.0249L7.47494 18.8582C7.23327 19.0166 6.94996 19.0998 6.66663 19.0998ZM5.83329 3.14986C3.68329 3.14986 2.29163 4.54153 2.29163 6.69153V11.6916C2.29163 13.8416 3.68329 15.2332 5.83329 15.2332C6.17496 15.2332 6.45829 15.5166 6.45829 15.8582V17.6332C6.45829 17.7416 6.52496 17.7916 6.56663 17.8166C6.6083 17.8416 6.69164 17.8666 6.78331 17.8082L10.4916 15.3416C10.5916 15.2749 10.7166 15.2332 10.8416 15.2332H14.175C16.325 15.2332 17.7166 13.8416 17.7166 11.6916V6.69153C17.7166 4.54153 16.325 3.14986 14.175 3.14986H5.83329Z" fill="#FAFAFA"/>
<path d="M9.99989 10.5918C9.65822 10.5918 9.37489 10.3085 9.37489 9.9668V9.79183C9.37489 8.82516 10.0832 8.35015 10.3499 8.16682C10.6582 7.95849 10.7582 7.81683 10.7582 7.60016C10.7582 7.18349 10.4166 6.8418 9.99989 6.8418C9.58322 6.8418 9.24158 7.18349 9.24158 7.60016C9.24158 7.94183 8.95824 8.22516 8.61658 8.22516C8.27491 8.22516 7.99158 7.94183 7.99158 7.60016C7.99158 6.49183 8.89155 5.5918 9.99989 5.5918C11.1082 5.5918 12.0082 6.49183 12.0082 7.60016C12.0082 8.55016 11.3082 9.02514 11.0499 9.20014C10.7249 9.41681 10.6249 9.5585 10.6249 9.79183V9.9668C10.6249 10.3168 10.3416 10.5918 9.99989 10.5918Z" fill="#FAFAFA"/>
<path d="M10 12.6665C9.65 12.6665 9.375 12.3832 9.375 12.0415C9.375 11.6998 9.65833 11.4165 10 11.4165C10.3417 11.4165 10.625 11.6998 10.625 12.0415C10.625 12.3832 10.35 12.6665 10 12.6665Z" fill="#FAFAFA"/>
</svg>
