<svg width="20" height="21" viewBox="0 0 20 21" fill="none" xmlns="http://www.w3.org/2000/svg">
<g clip-path="url(#clip0_612_15575)">
<path d="M12.6115 16.0592V17.0711C12.6115 18.7477 11.2524 20.1069 9.57583 20.1069C7.89925 20.1069 6.54011 18.7477 6.54011 17.0711V16.0592M12.6115 16.0592H6.54011M12.6115 16.0592H16.2448C16.6319 16.0592 16.8263 16.0592 16.9831 16.0064C17.2824 15.9054 17.5167 15.6703 17.6177 15.3709C17.6708 15.2136 17.6708 15.0185 17.6708 14.6283C17.6708 14.4576 17.6706 14.3723 17.6572 14.2909C17.632 14.1371 17.5723 13.9913 17.4814 13.8646C17.4334 13.7977 17.3723 13.7367 17.252 13.6163L16.8578 13.2222C16.7306 13.095 16.6592 12.9225 16.6592 12.7426V8.97591C16.6592 5.06389 13.4879 1.89257 9.57583 1.89258C5.66382 1.89259 2.4925 5.0639 2.4925 8.97591V12.7427C2.4925 12.9225 2.4209 13.095 2.29372 13.2222L1.89958 13.6163C1.77886 13.737 1.71843 13.7977 1.67032 13.8647C1.57941 13.9913 1.51919 14.1371 1.49395 14.2909C1.48059 14.3723 1.48059 14.4576 1.48059 14.6284C1.48059 15.0185 1.48059 15.2135 1.53367 15.3709C1.63465 15.6703 1.86997 15.9054 2.16936 16.0064C2.3261 16.0592 2.51983 16.0592 2.90693 16.0592H6.54011" stroke="white" stroke-width="2" stroke-linecap="round" stroke-linejoin="round"/>
</g>
<defs>
<clipPath id="clip0_612_15575">
<rect width="20" height="20" fill="white" transform="translate(0 0.5)"/>
</clipPath>
</defs>
</svg>
