<svg width="25" height="24" viewBox="0 0 25 24" fill="none" xmlns="http://www.w3.org/2000/svg">
<path d="M2.5 22H22.5" stroke="url(#paint0_linear_97_4462)" stroke-width="1.5" stroke-miterlimit="10" stroke-linecap="round" stroke-linejoin="round"/>
<path d="M2.5 22H22.5" stroke="url(#paint1_linear_97_4462)" stroke-width="1.5" stroke-miterlimit="10" stroke-linecap="round" stroke-linejoin="round"/>
<path d="M10.25 4V22H14.75V4C14.75 2.9 14.3 2 12.95 2H12.05C10.7 2 10.25 2.9 10.25 4Z" stroke="url(#paint2_linear_97_4462)" stroke-width="1.5" stroke-linecap="round" stroke-linejoin="round"/>
<path d="M10.25 4V22H14.75V4C14.75 2.9 14.3 2 12.95 2H12.05C10.7 2 10.25 2.9 10.25 4Z" stroke="url(#paint3_linear_97_4462)" stroke-width="1.5" stroke-linecap="round" stroke-linejoin="round"/>
<g opacity="0.4">
<path d="M3.5 10V22H7.5V10C7.5 8.9 7.1 8 5.9 8H5.1C3.9 8 3.5 8.9 3.5 10Z" stroke="url(#paint4_linear_97_4462)" stroke-width="1.5" stroke-linecap="round" stroke-linejoin="round"/>
<path d="M3.5 10V22H7.5V10C7.5 8.9 7.1 8 5.9 8H5.1C3.9 8 3.5 8.9 3.5 10Z" stroke="url(#paint5_linear_97_4462)" stroke-width="1.5" stroke-linecap="round" stroke-linejoin="round"/>
</g>
<g opacity="0.4">
<path d="M17.5 15V22H21.5V15C21.5 13.9 21.1 13 19.9 13H19.1C17.9 13 17.5 13.9 17.5 15Z" stroke="url(#paint6_linear_97_4462)" stroke-width="1.5" stroke-linecap="round" stroke-linejoin="round"/>
<path d="M17.5 15V22H21.5V15C21.5 13.9 21.1 13 19.9 13H19.1C17.9 13 17.5 13.9 17.5 15Z" stroke="url(#paint7_linear_97_4462)" stroke-width="1.5" stroke-linecap="round" stroke-linejoin="round"/>
</g>
<defs>
<linearGradient id="paint0_linear_97_4462" x1="12.5267" y1="23" x2="12.5267" y2="22" gradientUnits="userSpaceOnUse">
<stop/>
<stop offset="1" stop-opacity="0"/>
</linearGradient>
<linearGradient id="paint1_linear_97_4462" x1="12.5" y1="22" x2="12.5" y2="23" gradientUnits="userSpaceOnUse">
<stop stop-color="#00B2FF"/>
<stop offset="0.146667" stop-color="#0AA9FA"/>
<stop offset="1" stop-color="#4670DA"/>
</linearGradient>
<linearGradient id="paint2_linear_97_4462" x1="12.506" y1="22" x2="12.506" y2="2" gradientUnits="userSpaceOnUse">
<stop/>
<stop offset="1" stop-opacity="0"/>
</linearGradient>
<linearGradient id="paint3_linear_97_4462" x1="12.5" y1="2" x2="12.5" y2="22" gradientUnits="userSpaceOnUse">
<stop stop-color="#00B2FF"/>
<stop offset="0.146667" stop-color="#0AA9FA"/>
<stop offset="1" stop-color="#4670DA"/>
</linearGradient>
<linearGradient id="paint4_linear_97_4462" x1="5.50533" y1="22" x2="5.50533" y2="8" gradientUnits="userSpaceOnUse">
<stop/>
<stop offset="1" stop-opacity="0"/>
</linearGradient>
<linearGradient id="paint5_linear_97_4462" x1="5.5" y1="8" x2="5.5" y2="22" gradientUnits="userSpaceOnUse">
<stop stop-color="#00B2FF"/>
<stop offset="0.146667" stop-color="#0AA9FA"/>
<stop offset="1" stop-color="#4670DA"/>
</linearGradient>
<linearGradient id="paint6_linear_97_4462" x1="19.5053" y1="22" x2="19.5053" y2="13" gradientUnits="userSpaceOnUse">
<stop/>
<stop offset="1" stop-opacity="0"/>
</linearGradient>
<linearGradient id="paint7_linear_97_4462" x1="19.5" y1="13" x2="19.5" y2="22" gradientUnits="userSpaceOnUse">
<stop stop-color="#00B2FF"/>
<stop offset="0.146667" stop-color="#0AA9FA"/>
<stop offset="1" stop-color="#4670DA"/>
</linearGradient>
</defs>
</svg>
