<svg width="20" height="21" viewBox="0 0 20 21" fill="none" xmlns="http://www.w3.org/2000/svg">
<path d="M8.29153 19.4581H6.4832C6.1582 19.4581 5.5082 19.3581 5.1332 18.9914L3.71653 17.8998L4.48319 16.9081L5.9582 18.0499C6.06653 18.1415 6.29153 18.2081 6.4832 18.2081H8.29153C8.59986 18.2081 8.94986 17.9498 9.01653 17.6831L10.1749 14.1581C10.2082 14.0748 10.2332 13.9498 10.1749 13.8582C10.1249 13.7832 10.0082 13.7415 9.86653 13.7415H7.9582C7.6332 13.7415 7.3332 13.5998 7.11653 13.3582C6.89986 13.1082 6.8082 12.7914 6.8582 12.4498L7.09986 10.9165C7.13319 10.7748 7.0332 10.5998 6.89986 10.5581C6.79153 10.5164 6.60819 10.5915 6.56653 10.6498L4.6082 13.5582L3.56653 12.8581L5.51653 9.94977C5.8832 9.39977 6.6832 9.14983 7.29986 9.38316C8.0082 9.6165 8.47486 10.4165 8.3082 11.1498L8.09986 12.4831H9.84153C10.3999 12.4831 10.8832 12.7165 11.1749 13.1332C11.4582 13.5332 11.5165 14.0581 11.3332 14.5581L10.1915 18.0248C10.0249 18.8082 9.17486 19.4581 8.29153 19.4581Z" fill="#FAFAFA"/>
<path d="M3.0998 18.9336H2.6248C1.3248 18.9336 1.0498 18.1002 1.0498 17.4002V12.7336C1.0498 12.0336 1.3248 11.2002 2.6248 11.2002H3.0998C4.3998 11.2002 4.6748 12.0336 4.6748 12.7336V17.4002C4.6748 18.1002 4.3998 18.9336 3.0998 18.9336ZM2.3248 17.6502C2.33314 17.6502 2.41647 17.6836 2.61647 17.6836H3.09147C3.30814 17.6836 3.38314 17.6502 3.3998 17.6418C3.3998 17.6335 3.4248 17.5752 3.4248 17.4002V12.7336C3.4248 12.5586 3.3998 12.4919 3.39147 12.4836C3.39147 12.5002 3.30814 12.4502 3.0998 12.4502H2.6248C2.40814 12.4502 2.33314 12.4836 2.31647 12.4919C2.31647 12.5002 2.29147 12.5586 2.29147 12.7336V17.4002C2.29147 17.5752 2.31647 17.6419 2.3248 17.6502Z" fill="#FAFAFA"/>
<path d="M13.1752 11.6998C13.0085 11.6998 12.8418 11.6748 12.6835 11.6165C11.9752 11.3831 11.5085 10.5831 11.6752 9.84981L11.8835 8.5165H10.1418C9.58349 8.5165 9.10016 8.28314 8.80849 7.86648C8.52516 7.46648 8.46683 6.94151 8.65016 6.44151L9.79183 2.97481C9.98349 2.19148 10.8418 1.5415 11.7168 1.5415H13.5252C13.8502 1.5415 14.5002 1.64155 14.8752 2.00822L16.2918 3.09983L15.5252 4.09155L14.0502 2.94979C13.9418 2.85812 13.7168 2.7915 13.5252 2.7915H11.7168C11.4085 2.7915 11.0585 3.04984 10.9918 3.31651L9.8335 6.84149C9.80016 6.92482 9.77516 7.04981 9.8335 7.14148C9.8835 7.21648 10.0002 7.25816 10.1418 7.25816H12.0502C12.3752 7.25816 12.6752 7.39979 12.8918 7.64146C13.1085 7.89146 13.2002 8.2082 13.1502 8.54987L12.9085 10.0832C12.8752 10.2248 12.9752 10.3999 13.1085 10.4415C13.2252 10.4832 13.4002 10.4165 13.4418 10.3498L15.4002 7.44147L16.4418 8.14154L14.4918 11.0499C14.1918 11.4499 13.6752 11.6998 13.1752 11.6998Z" fill="#FAFAFA"/>
<path d="M17.3833 9.80025H16.9083C15.6083 9.80025 15.3333 8.96685 15.3333 8.26685V3.6002C15.3333 2.9002 15.6083 2.06689 16.9083 2.06689H17.3833C18.6833 2.06689 18.9583 2.9002 18.9583 3.6002V8.26685C18.9583 8.96685 18.6833 9.80025 17.3833 9.80025ZM16.6083 8.51689C16.6166 8.51689 16.6999 8.55025 16.8999 8.55025H17.3749C17.5916 8.55025 17.6666 8.51688 17.6833 8.50855C17.6833 8.50021 17.7083 8.44185 17.7083 8.26685V3.6002C17.7083 3.4252 17.6832 3.36693 17.6749 3.35026C17.6832 3.38359 17.5916 3.31689 17.3833 3.31689H16.9083C16.6916 3.31689 16.6166 3.35027 16.5999 3.3586C16.5999 3.36694 16.5749 3.4252 16.5749 3.6002V8.26685C16.5749 8.44185 16.5999 8.50022 16.6083 8.51689Z" fill="#FAFAFA"/>
</svg>
