<svg width="42" height="43" viewBox="0 0 42 43" fill="none" xmlns="http://www.w3.org/2000/svg">
<path d="M22.3125 11V7.0625L30.1875 14.9375H26.25C23.485 14.9375 22.3125 13.765 22.3125 11ZM22.3125 31.86C22.3125 33.54 22.7675 35.115 23.59 36.4625C23.8 36.8125 23.5199 37.25 23.1174 37.25H10.5C7 37.25 5.25 35.5 5.25 32V11C5.25 7.5 7 5.75 10.5 5.75H19.6875V11C19.6875 15.235 22.015 17.5625 26.25 17.5625H31.5V22.305C31.5 22.585 31.2724 22.8125 30.9924 22.83C26.2324 23.0925 22.3125 27.0475 22.3125 31.86ZM13.5625 28.5C13.5625 27.7755 12.9745 27.1875 12.25 27.1875C11.5255 27.1875 10.9375 27.7755 10.9375 28.5C10.9375 29.2245 11.5255 29.8125 12.25 29.8125C12.9745 29.8125 13.5625 29.2245 13.5625 28.5ZM13.5625 21.5C13.5625 20.7755 12.9745 20.1875 12.25 20.1875C11.5255 20.1875 10.9375 20.7755 10.9375 21.5C10.9375 22.2245 11.5255 22.8125 12.25 22.8125C12.9745 22.8125 13.5625 22.2245 13.5625 21.5ZM20.5625 28.5C20.5625 27.7755 19.9745 27.1875 19.25 27.1875H16.625C15.9005 27.1875 15.3125 27.7755 15.3125 28.5C15.3125 29.2245 15.9005 29.8125 16.625 29.8125H19.25C19.9745 29.8125 20.5625 29.2245 20.5625 28.5ZM24.5 22.8125C25.2245 22.8125 25.8125 22.2245 25.8125 21.5C25.8125 20.7755 25.2245 20.1875 24.5 20.1875H16.625C15.9005 20.1875 15.3125 20.7755 15.3125 21.5C15.3125 22.2245 15.9005 22.8125 16.625 22.8125H24.5ZM39.4275 39.9275C39.1721 40.183 38.836 40.3125 38.5 40.3125C38.164 40.3125 37.8279 40.1847 37.5724 39.9275L34.8599 37.2167C33.8501 37.8782 32.6497 38.2703 31.3547 38.2703C27.8162 38.2703 24.9375 35.3915 24.9375 31.853C24.9375 28.3145 27.8162 25.4357 31.3547 25.4357C34.8915 25.4357 37.7703 28.3145 37.7703 31.853C37.7703 33.148 37.3782 34.3503 36.715 35.3583L39.4275 38.0707C39.9403 38.5835 39.9403 39.4147 39.4275 39.9275ZM35.1453 31.8547C35.1453 29.7635 33.4442 28.0625 31.3547 28.0625C29.2635 28.0625 27.5625 29.7635 27.5625 31.8547C27.5625 33.946 29.2635 35.647 31.3547 35.647C33.4442 35.6453 35.1453 33.9442 35.1453 31.8547Z" fill="white"/>
</svg>
