<svg width="20" height="21" viewBox="0 0 20 21" fill="none" xmlns="http://www.w3.org/2000/svg">
<path d="M14.3998 9.8332C14.2415 9.8332 14.0831 9.77484 13.9581 9.64984C13.7164 9.40817 13.7164 9.00817 13.9581 8.76651L16.6164 6.10817L13.9581 3.44984C13.7164 3.20817 13.7164 2.80817 13.9581 2.5665C14.1998 2.32484 14.5998 2.32484 14.8414 2.5665L17.9415 5.66653C18.0581 5.7832 18.1248 5.9415 18.1248 6.10817C18.1248 6.27484 18.0581 6.4332 17.9415 6.54986L14.8414 9.64984C14.7164 9.7665 14.5581 9.8332 14.3998 9.8332Z" fill="#FAFAFA"/>
<path d="M17.5 6.7334H2.5C2.15833 6.7334 1.875 6.45007 1.875 6.1084C1.875 5.76673 2.15833 5.4834 2.5 5.4834H17.5C17.8417 5.4834 18.125 5.76673 18.125 6.1084C18.125 6.45007 17.8417 6.7334 17.5 6.7334Z" fill="#FAFAFA"/>
<path d="M5.59998 18.6251C5.44164 18.6251 5.28334 18.5668 5.15834 18.4418L2.05831 15.3418C1.94164 15.2251 1.875 15.0668 1.875 14.9002C1.875 14.7335 1.94164 14.5751 2.05831 14.4585L5.15834 11.3585C5.4 11.1168 5.8 11.1168 6.04167 11.3585C6.28333 11.6002 6.28333 12.0002 6.04167 12.2418L3.38333 14.9002L6.04167 17.5584C6.28333 17.8001 6.28333 18.2002 6.04167 18.4418C5.925 18.5668 5.76664 18.6251 5.59998 18.6251Z" fill="#FAFAFA"/>
<path d="M17.5 15.5166H2.5C2.15833 15.5166 1.875 15.2333 1.875 14.8916C1.875 14.5499 2.15833 14.2666 2.5 14.2666H17.5C17.8417 14.2666 18.125 14.5499 18.125 14.8916C18.125 15.2333 17.8417 15.5166 17.5 15.5166Z" fill="#FAFAFA"/>
</svg>
