<svg width="25" height="24" viewBox="0 0 25 24" fill="none" xmlns="http://www.w3.org/2000/svg">
<path d="M5.43006 22.75C5.01006 22.75 4.62006 22.65 4.27006 22.45C3.50006 22 3.06006 21.09 3.06006 19.96V5.86C3.06006 3.32 5.13006 1.25 7.67006 1.25H17.3201C19.8601 1.25 21.9301 3.32 21.9301 5.86V19.95C21.9301 21.08 21.4901 21.99 20.7201 22.44C19.9501 22.89 18.9401 22.84 17.9501 22.29L13.0701 19.58C12.7801 19.42 12.2101 19.42 11.9201 19.58L7.04006 22.29C6.50006 22.59 5.95006 22.75 5.43006 22.75ZM7.68006 2.75C5.97006 2.75 4.57006 4.15 4.57006 5.86V19.95C4.57006 20.54 4.74006 20.98 5.04006 21.15C5.34006 21.32 5.81006 21.27 6.32006 20.98L11.2001 18.27C11.9401 17.86 13.0601 17.86 13.8001 18.27L18.6801 20.98C19.1901 21.27 19.6601 21.33 19.9601 21.15C20.2601 20.97 20.4301 20.53 20.4301 19.95V5.86C20.4301 4.15 19.0301 2.75 17.3201 2.75H7.68006Z" fill="url(#paint0_linear_447_10757)"/>
<path d="M5.43006 22.75C5.01006 22.75 4.62006 22.65 4.27006 22.45C3.50006 22 3.06006 21.09 3.06006 19.96V5.86C3.06006 3.32 5.13006 1.25 7.67006 1.25H17.3201C19.8601 1.25 21.9301 3.32 21.9301 5.86V19.95C21.9301 21.08 21.4901 21.99 20.7201 22.44C19.9501 22.89 18.9401 22.84 17.9501 22.29L13.0701 19.58C12.7801 19.42 12.2101 19.42 11.9201 19.58L7.04006 22.29C6.50006 22.59 5.95006 22.75 5.43006 22.75ZM7.68006 2.75C5.97006 2.75 4.57006 4.15 4.57006 5.86V19.95C4.57006 20.54 4.74006 20.98 5.04006 21.15C5.34006 21.32 5.81006 21.27 6.32006 20.98L11.2001 18.27C11.9401 17.86 13.0601 17.86 13.8001 18.27L18.6801 20.98C19.1901 21.27 19.6601 21.33 19.9601 21.15C20.2601 20.97 20.4301 20.53 20.4301 19.95V5.86C20.4301 4.15 19.0301 2.75 17.3201 2.75H7.68006Z" fill="url(#paint1_linear_447_10757)"/>
<path d="M11.59 13.2499C11.4 13.2499 11.21 13.1799 11.06 13.0299L9.56003 11.5299C9.27003 11.2399 9.27003 10.7599 9.56003 10.4699C9.85003 10.1799 10.33 10.1799 10.62 10.4699L11.59 11.4399L15.06 7.96994C15.35 7.67994 15.83 7.67994 16.12 7.96994C16.41 8.25994 16.41 8.73994 16.12 9.02994L12.12 13.0299C11.97 13.1799 11.78 13.2499 11.59 13.2499Z" fill="url(#paint2_linear_447_10757)"/>
<path d="M11.59 13.2499C11.4 13.2499 11.21 13.1799 11.06 13.0299L9.56003 11.5299C9.27003 11.2399 9.27003 10.7599 9.56003 10.4699C9.85003 10.1799 10.33 10.1799 10.62 10.4699L11.59 11.4399L15.06 7.96994C15.35 7.67994 15.83 7.67994 16.12 7.96994C16.41 8.25994 16.41 8.73994 16.12 9.02994L12.12 13.0299C11.97 13.1799 11.78 13.2499 11.59 13.2499Z" fill="url(#paint3_linear_447_10757)"/>
<defs>
<linearGradient id="paint0_linear_447_10757" x1="12.5202" y1="22.75" x2="12.5202" y2="1.25" gradientUnits="userSpaceOnUse">
<stop/>
<stop offset="1" stop-opacity="0"/>
</linearGradient>
<linearGradient id="paint1_linear_447_10757" x1="12.4951" y1="1.25" x2="12.4951" y2="22.75" gradientUnits="userSpaceOnUse">
<stop stop-color="#00B2FF"/>
<stop offset="0.146667" stop-color="#0AA9FA"/>
<stop offset="1" stop-color="#4670DA"/>
</linearGradient>
<linearGradient id="paint2_linear_447_10757" x1="12.8494" y1="13.2499" x2="12.8494" y2="7.75244" gradientUnits="userSpaceOnUse">
<stop/>
<stop offset="1" stop-opacity="0"/>
</linearGradient>
<linearGradient id="paint3_linear_447_10757" x1="12.84" y1="7.75244" x2="12.84" y2="13.2499" gradientUnits="userSpaceOnUse">
<stop stop-color="#00B2FF"/>
<stop offset="0.146667" stop-color="#0AA9FA"/>
<stop offset="1" stop-color="#4670DA"/>
</linearGradient>
</defs>
</svg>
