<svg width="20" height="21" viewBox="0 0 20 21" fill="none" xmlns="http://www.w3.org/2000/svg">
<path d="M10 13.625C8.275 13.625 6.875 12.225 6.875 10.5C6.875 8.775 8.275 7.375 10 7.375C11.725 7.375 13.125 8.775 13.125 10.5C13.125 12.225 11.725 13.625 10 13.625ZM10 8.625C8.96667 8.625 8.125 9.46667 8.125 10.5C8.125 11.5333 8.96667 12.375 10 12.375C11.0333 12.375 11.875 11.5333 11.875 10.5C11.875 9.46667 11.0333 8.625 10 8.625Z" fill="#FAFAFA"/>
<path d="M12.675 18.9917C12.5 18.9917 12.325 18.9667 12.15 18.9251C11.6333 18.7834 11.2 18.4584 10.925 18.0001L10.825 17.8334C10.3333 16.9834 9.65829 16.9834 9.16663 17.8334L9.07496 17.9917C8.79996 18.4584 8.36663 18.7917 7.84996 18.9251C7.32496 19.0667 6.78329 18.9917 6.32496 18.7167L4.89163 17.8917C4.38329 17.6001 4.01663 17.1251 3.85829 16.5501C3.70829 15.9751 3.78329 15.3834 4.07496 14.8751C4.31663 14.4501 4.38329 14.0667 4.24163 13.8251C4.09996 13.5834 3.74163 13.4417 3.24996 13.4417C2.03329 13.4417 1.04163 12.4501 1.04163 11.2334V9.76674C1.04163 8.55008 2.03329 7.55841 3.24996 7.55841C3.74163 7.55841 4.09996 7.41674 4.24163 7.17508C4.38329 6.93341 4.32496 6.55008 4.07496 6.12508C3.78329 5.61674 3.70829 5.01674 3.85829 4.45008C4.00829 3.87508 4.37496 3.40008 4.89163 3.10841L6.33329 2.28341C7.27496 1.72508 8.51663 2.05008 9.08329 3.00841L9.18329 3.17508C9.67496 4.02508 10.35 4.02508 10.8416 3.17508L10.9333 3.01674C11.5 2.05008 12.7416 1.72508 13.6916 2.29174L15.125 3.11674C15.6333 3.40841 16 3.88341 16.1583 4.45841C16.3083 5.03341 16.2333 5.62508 15.9416 6.13341C15.7 6.55841 15.6333 6.94174 15.775 7.18341C15.9166 7.42508 16.275 7.56674 16.7666 7.56674C17.9833 7.56674 18.975 8.55841 18.975 9.77508V11.2417C18.975 12.4584 17.9833 13.4501 16.7666 13.4501C16.275 13.4501 15.9166 13.5917 15.775 13.8334C15.6333 14.0751 15.6916 14.4584 15.9416 14.8834C16.2333 15.3917 16.3166 15.9917 16.1583 16.5584C16.0083 17.1334 15.6416 17.6084 15.125 17.9001L13.6833 18.7251C13.3666 18.9001 13.025 18.9917 12.675 18.9917ZM9.99996 15.9084C10.7416 15.9084 11.4333 16.3751 11.9083 17.2001L12 17.3584C12.1 17.5334 12.2666 17.6584 12.4666 17.7084C12.6666 17.7584 12.8666 17.7334 13.0333 17.6334L14.475 16.8001C14.6916 16.6751 14.8583 16.4667 14.925 16.2167C14.9916 15.9667 14.9583 15.7084 14.8333 15.4917C14.3583 14.6751 14.3 13.8334 14.6666 13.1917C15.0333 12.5501 15.7916 12.1834 16.7416 12.1834C17.275 12.1834 17.7 11.7584 17.7 11.2251V9.75841C17.7 9.23341 17.275 8.80008 16.7416 8.80008C15.7916 8.80008 15.0333 8.43341 14.6666 7.79174C14.3 7.15008 14.3583 6.30841 14.8333 5.49174C14.9583 5.27508 14.9916 5.01674 14.925 4.76674C14.8583 4.51674 14.7 4.31674 14.4833 4.18341L13.0416 3.35841C12.6833 3.14174 12.2083 3.26674 11.9916 3.63341L11.9 3.79174C11.425 4.61674 10.7333 5.08341 9.99163 5.08341C9.24996 5.08341 8.55829 4.61674 8.08329 3.79174L7.99163 3.62508C7.78329 3.27508 7.31663 3.15008 6.95829 3.35841L5.51663 4.19174C5.29996 4.31674 5.13329 4.52508 5.06663 4.77508C4.99996 5.02508 5.03329 5.28341 5.15829 5.50008C5.63329 6.31674 5.69163 7.15841 5.32496 7.80008C4.95829 8.44174 4.19996 8.80841 3.24996 8.80841C2.71663 8.80841 2.29163 9.23341 2.29163 9.76674V11.2334C2.29163 11.7584 2.71663 12.1917 3.24996 12.1917C4.19996 12.1917 4.95829 12.5584 5.32496 13.2001C5.69163 13.8417 5.63329 14.6834 5.15829 15.5001C5.03329 15.7167 4.99996 15.9751 5.06663 16.2251C5.13329 16.4751 5.29163 16.6751 5.50829 16.8084L6.94996 17.6334C7.12496 17.7417 7.33329 17.7667 7.52496 17.7167C7.72496 17.6667 7.89163 17.5334 7.99996 17.3584L8.09163 17.2001C8.56663 16.3834 9.25829 15.9084 9.99996 15.9084Z" fill="#FAFAFA"/>
</svg>
