<svg width="42" height="43" viewBox="0 0 42 43" fill="none" xmlns="http://www.w3.org/2000/svg">
<path d="M23.611 25.3181L17.1818 18.8889C16.9666 18.6736 16.6127 18.6857 16.4132 18.9167L6.21272 30.7048C4.86522 32.2623 4.93498 34.6249 6.40498 36.0949C7.17498 36.8649 8.19015 37.2498 9.20515 37.2498C10.1326 37.2498 11.0601 36.9347 11.7951 36.2872L23.5833 26.0867C23.8143 25.8872 23.8263 25.5333 23.611 25.3181ZM18.335 26.0201L16.5969 27.756C16.3414 28.0115 16.0041 28.1392 15.6698 28.1392C15.3338 28.1392 14.9978 28.0115 14.7423 27.7542C14.2295 27.2415 14.2295 26.4102 14.7423 25.8974L16.4799 24.1615C16.9944 23.6505 17.8257 23.6505 18.3367 24.1615C18.8477 24.676 18.8477 25.5073 18.335 26.0201ZM34.2529 18.8974L23.6025 8.24705C23.3767 8.0213 23.3957 7.63458 23.6512 7.44383C26.8467 5.04983 30.828 5.10244 34.1127 8.38719C37.3975 11.6719 37.4501 15.6532 35.0561 18.8487C34.8653 19.1042 34.4786 19.1232 34.2529 18.8974ZM20.8707 10.0197C18.5484 12.3419 18.16 14.4052 18.4627 16.325C18.4802 16.437 18.536 16.5419 18.6165 16.6224L25.8703 23.8761C25.9508 23.9566 26.0539 24.0129 26.1677 24.0304C28.0874 24.3331 30.1507 23.9447 32.473 21.6224C32.473 21.6224 32.8791 21.2424 32.4854 20.8504C32.1564 20.5214 22.0728 10.4382 21.6598 10.0252C21.2485 9.61225 20.8707 10.0197 20.8707 10.0197Z" fill="white"/>
</svg>
