<svg width="42" height="43" viewBox="0 0 42 43" fill="none" xmlns="http://www.w3.org/2000/svg">
<path d="M35.3325 31.2825L23.8 36.6375C22.0325 37.46 19.9675 37.46 18.2 36.6375L6.6675 31.2825C4.7775 30.4075 4.7775 27.7125 6.6675 26.8375L6.91253 26.7325L17.0975 31.44C18.3225 32.0175 19.635 32.315 21 32.315C22.365 32.315 23.6775 32.0175 24.9025 31.44L35.0875 26.7325L35.3325 26.8375C37.2225 27.7125 37.2225 30.4075 35.3325 31.2825ZM35.3325 19.26L35.105 19.155L26.95 22.9525L24.9025 23.8975C23.6775 24.4575 22.365 24.755 21 24.755C19.635 24.755 18.3225 24.4575 17.0975 23.8975L15.05 22.9525L6.89501 19.155L6.6675 19.26C4.7775 20.1525 4.7775 22.8475 6.6675 23.7225L10.0275 25.28L18.2 29.06C19.0925 29.48 20.0375 29.69 21 29.69C21.9625 29.69 22.9075 29.48 23.8 29.06L31.9725 25.28L35.3325 23.7225C37.2225 22.8475 37.2225 20.1525 35.3325 19.26ZM35.3325 11.7175L23.8 6.36251C22.9075 5.96001 21.9625 5.75 21 5.75C20.0375 5.75 19.0925 5.96001 18.2 6.36251L6.6675 11.7175C4.7775 12.5925 4.7775 15.2875 6.6675 16.1625L6.89501 16.2675L8.45248 16.985L10.01 17.72L18.2 21.5175C19.0925 21.92 20.0375 22.13 21 22.13C21.9625 22.13 22.9075 21.92 23.8 21.5175L31.99 17.72L33.5475 16.985L35.105 16.2675L35.3325 16.1625C37.2225 15.2875 37.2225 12.5925 35.3325 11.7175Z" fill="white"/>
</svg>
